<svg width="387" height="54" viewBox="0 0 387 54" fill="none" xmlns="http://www.w3.org/2000/svg">
<path d="M14.048 26.432C12.104 26.432 10.292 26.12 8.612 25.496C6.956 24.848 5.516 23.936 4.292 22.76C3.068 21.584 2.108 20.204 1.412 18.62C0.74 17.036 0.404 15.296 0.404 13.4C0.404 11.504 0.74 9.764 1.412 8.18C2.108 6.596 3.068 5.216 4.292 4.04C5.54 2.864 6.992 1.964 8.648 1.34C10.304 0.691999 12.116 0.368 14.084 0.368C16.268 0.368 18.236 0.752 19.988 1.52C21.764 2.264 23.252 3.368 24.452 4.832L20.708 8.288C19.844 7.304 18.884 6.572 17.828 6.092C16.772 5.588 15.62 5.336 14.372 5.336C13.196 5.336 12.116 5.528 11.132 5.912C10.148 6.296 9.296 6.848 8.576 7.568C7.856 8.288 7.292 9.14 6.884 10.124C6.5 11.108 6.308 12.2 6.308 13.4C6.308 14.6 6.5 15.692 6.884 16.676C7.292 17.66 7.856 18.512 8.576 19.232C9.296 19.952 10.148 20.504 11.132 20.888C12.116 21.272 13.196 21.464 14.372 21.464C15.62 21.464 16.772 21.224 17.828 20.744C18.884 20.24 19.844 19.484 20.708 18.476L24.452 21.932C23.252 23.396 21.764 24.512 19.988 25.28C18.236 26.048 16.256 26.432 14.048 26.432ZM33.6171 10.952H45.7491V15.488H33.6171V10.952ZM34.0491 21.32H47.7651V26H28.2531V0.799998H47.2971V5.48H34.0491V21.32ZM52.4758 26V0.799998H57.2998L68.0278 18.584H65.4718L76.0198 0.799998H80.8438L80.8798 26H75.4078L75.3718 9.188H76.4158L67.9558 23.336H65.3638L56.7238 9.188H57.9478V26H52.4758ZM92.5038 10.952H104.636V15.488H92.5038V10.952ZM92.9358 21.32H106.652V26H87.1398V0.799998H106.184V5.48H92.9358V21.32ZM128.642 0.799998H134.474V26H128.642V0.799998ZM117.194 26H111.362V0.799998H117.194V26ZM129.074 15.668H116.762V10.736H129.074V15.668ZM137.944 26L149.176 0.799998H154.936L166.204 26H160.084L150.868 3.752H153.172L143.92 26H137.944ZM143.56 20.6L145.108 16.172H158.068L159.652 20.6H143.56Z" fill="#4F964E"/>
<path d="M1.626 48V34.35H7.658C9.20067 34.35 10.414 34.6447 11.298 35.234C12.1993 35.8233 12.65 36.69 12.65 37.834C12.65 38.9433 12.2253 39.8013 11.376 40.408C10.5267 40.9973 9.40867 41.292 8.022 41.292L8.386 40.746C10.0153 40.746 11.2113 41.0493 11.974 41.656C12.7367 42.2627 13.118 43.138 13.118 44.282C13.118 45.4607 12.6847 46.3793 11.818 47.038C10.9687 47.6793 9.64267 48 7.84 48H1.626ZM3.42 46.544H7.762C8.92333 46.544 9.79867 46.362 10.388 45.998C10.9947 45.6167 11.298 45.01 11.298 44.178C11.298 43.346 11.0293 42.7393 10.492 42.358C9.95467 41.9767 9.10533 41.786 7.944 41.786H3.42V46.544ZM3.42 40.408H7.528C8.58533 40.408 9.39133 40.2087 9.946 39.81C10.518 39.4113 10.804 38.8307 10.804 38.068C10.804 37.3053 10.518 36.7333 9.946 36.352C9.39133 35.9707 8.58533 35.78 7.528 35.78H3.42V40.408ZM23.1644 48.13C21.8124 48.13 20.599 47.8353 19.5244 47.246C18.467 46.6393 17.635 45.816 17.0284 44.776C16.4217 43.7187 16.1184 42.514 16.1184 41.162C16.1184 39.7927 16.4217 38.588 17.0284 37.548C17.635 36.508 18.467 35.6933 19.5244 35.104C20.599 34.5147 21.8124 34.22 23.1644 34.22C24.3257 34.22 25.3744 34.4453 26.3104 34.896C27.2464 35.3467 27.983 36.0227 28.5204 36.924L27.1424 37.86C26.6744 37.1667 26.0937 36.6553 25.4004 36.326C24.707 35.9967 23.953 35.832 23.1384 35.832C22.1677 35.832 21.2924 36.0573 20.5124 36.508C19.7324 36.9413 19.117 37.5567 18.6664 38.354C18.2157 39.1513 17.9904 40.0873 17.9904 41.162C17.9904 42.2367 18.2157 43.1727 18.6664 43.97C19.117 44.7673 19.7324 45.3913 20.5124 45.842C21.2924 46.2753 22.1677 46.492 23.1384 46.492C23.953 46.492 24.707 46.3273 25.4004 45.998C26.0937 45.6687 26.6744 45.166 27.1424 44.49L28.5204 45.426C27.983 46.31 27.2464 46.986 26.3104 47.454C25.3744 47.9047 24.3257 48.13 23.1644 48.13ZM37.7162 48.13C36.2949 48.13 35.0469 47.8353 33.9722 47.246C32.8976 46.6393 32.0569 45.816 31.4502 44.776C30.8436 43.7187 30.5402 42.514 30.5402 41.162C30.5402 39.81 30.8262 38.614 31.3982 37.574C31.9876 36.534 32.7849 35.7193 33.7902 35.13C34.8129 34.5233 35.9569 34.22 37.2222 34.22C38.5049 34.22 39.6402 34.5147 40.6282 35.104C41.6336 35.676 42.4222 36.4907 42.9942 37.548C43.5662 38.588 43.8522 39.7927 43.8522 41.162C43.8522 41.2487 43.8436 41.344 43.8262 41.448C43.8262 41.5347 43.8262 41.63 43.8262 41.734H31.9442V40.356H42.8382L42.1102 40.902C42.1102 39.914 41.8936 39.0387 41.4602 38.276C41.0442 37.496 40.4722 36.8893 39.7442 36.456C39.0162 36.0227 38.1756 35.806 37.2222 35.806C36.2862 35.806 35.4456 36.0227 34.7002 36.456C33.9549 36.8893 33.3742 37.496 32.9582 38.276C32.5422 39.056 32.3342 39.9487 32.3342 40.954V41.24C32.3342 42.28 32.5596 43.1987 33.0102 43.996C33.4782 44.776 34.1196 45.3913 34.9342 45.842C35.7662 46.2753 36.7109 46.492 37.7682 46.492C38.6002 46.492 39.3716 46.3447 40.0822 46.05C40.8102 45.7553 41.4342 45.3047 41.9542 44.698L42.9942 45.894C42.3876 46.622 41.6249 47.1767 40.7062 47.558C39.8049 47.9393 38.8082 48.13 37.7162 48.13ZM39.5362 31.62C39.2416 31.62 38.9816 31.516 38.7562 31.308C38.5309 31.1 38.4182 30.8313 38.4182 30.502C38.4182 30.1727 38.5309 29.904 38.7562 29.696C38.9816 29.488 39.2416 29.384 39.5362 29.384C39.8482 29.384 40.1082 29.488 40.3162 29.696C40.5416 29.904 40.6542 30.1727 40.6542 30.502C40.6542 30.8313 40.5416 31.1 40.3162 31.308C40.1082 31.516 39.8482 31.62 39.5362 31.62ZM34.9082 31.62C34.5962 31.62 34.3276 31.516 34.1022 31.308C33.8942 31.1 33.7902 30.8313 33.7902 30.502C33.7902 30.1727 33.8942 29.904 34.1022 29.696C34.3276 29.488 34.5962 29.384 34.9082 29.384C35.2029 29.384 35.4629 29.488 35.6882 29.696C35.9136 29.904 36.0262 30.1727 36.0262 30.502C36.0262 30.8313 35.9136 31.1 35.6882 31.308C35.4629 31.516 35.2029 31.62 34.9082 31.62ZM64.1032 47.116V35.962H57.5252L57.3692 39.004C57.3345 39.9227 57.2739 40.824 57.1872 41.708C57.1179 42.592 56.9879 43.4067 56.7972 44.152C56.6239 44.88 56.3725 45.478 56.0432 45.946C55.7139 46.3967 55.2892 46.6567 54.7692 46.726L52.9232 46.388C53.4605 46.4053 53.9025 46.2147 54.2492 45.816C54.5959 45.4 54.8645 44.8367 55.0552 44.126C55.2459 43.4153 55.3845 42.6093 55.4712 41.708C55.5579 40.7893 55.6272 39.8533 55.6792 38.9L55.8612 34.35H65.9492V47.116H64.1032ZM52.3512 51.302V46.388H68.0812V51.302H66.3392V48H54.0932V51.302H52.3512ZM69.1827 47.974L69.3127 46.388C69.4341 46.4053 69.5467 46.4313 69.6507 46.466C69.7721 46.4833 69.8761 46.492 69.9627 46.492C70.5174 46.492 70.9594 46.284 71.2887 45.868C71.6354 45.452 71.8954 44.8973 72.0687 44.204C72.2421 43.5107 72.3634 42.7307 72.4327 41.864C72.5021 40.98 72.5627 40.096 72.6147 39.212L72.8487 34.35H82.8587V48H81.0127V35.416L81.4807 35.962H74.0447L74.4867 35.39L74.2787 39.342C74.2267 40.5207 74.1314 41.6473 73.9927 42.722C73.8714 43.7967 73.6721 44.7413 73.3947 45.556C73.1347 46.3707 72.7707 47.012 72.3027 47.48C71.8347 47.9307 71.2367 48.156 70.5087 48.156C70.3007 48.156 70.0841 48.1387 69.8587 48.104C69.6507 48.0693 69.4254 48.026 69.1827 47.974ZM96.9205 48V43.086L97.2585 43.476H92.6305C90.8798 43.476 89.5105 43.0947 88.5225 42.332C87.5345 41.5693 87.0405 40.46 87.0405 39.004C87.0405 37.444 87.5691 36.2827 88.6265 35.52C89.6838 34.74 91.0965 34.35 92.8645 34.35H98.6105V48H96.9205ZM86.9365 48L90.6805 42.748H92.6045L88.9385 48H86.9365ZM96.9205 42.54V35.416L97.2585 35.962H92.9165C91.6511 35.962 90.6631 36.2047 89.9525 36.69C89.2591 37.1753 88.9125 37.964 88.9125 39.056C88.9125 41.084 90.2038 42.098 92.7865 42.098H97.2585L96.9205 42.54ZM116.399 48.13C115.047 48.13 113.833 47.8353 112.759 47.246C111.701 46.6393 110.869 45.816 110.263 44.776C109.656 43.7187 109.353 42.514 109.353 41.162C109.353 39.7927 109.656 38.588 110.263 37.548C110.869 36.508 111.701 35.6933 112.759 35.104C113.833 34.5147 115.047 34.22 116.399 34.22C117.56 34.22 118.609 34.4453 119.545 34.896C120.481 35.3467 121.217 36.0227 121.755 36.924L120.377 37.86C119.909 37.1667 119.328 36.6553 118.635 36.326C117.941 35.9967 117.187 35.832 116.373 35.832C115.402 35.832 114.527 36.0573 113.747 36.508C112.967 36.9413 112.351 37.5567 111.901 38.354C111.45 39.1513 111.225 40.0873 111.225 41.162C111.225 42.2367 111.45 43.1727 111.901 43.97C112.351 44.7673 112.967 45.3913 113.747 45.842C114.527 46.2753 115.402 46.492 116.373 46.492C117.187 46.492 117.941 46.3273 118.635 45.998C119.328 45.6687 119.909 45.166 120.377 44.49L121.755 45.426C121.217 46.31 120.481 46.986 119.545 47.454C118.609 47.9047 117.56 48.13 116.399 48.13ZM133.805 48V44.984L133.727 44.49V39.446C133.727 38.2847 133.398 37.392 132.739 36.768C132.098 36.144 131.136 35.832 129.853 35.832C128.969 35.832 128.128 35.9793 127.331 36.274C126.534 36.5687 125.858 36.9587 125.303 37.444L124.471 36.066C125.164 35.4767 125.996 35.026 126.967 34.714C127.938 34.3847 128.96 34.22 130.035 34.22C131.803 34.22 133.164 34.662 134.117 35.546C135.088 36.4127 135.573 37.7387 135.573 39.524V48H133.805ZM129.099 48.13C128.076 48.13 127.184 47.9653 126.421 47.636C125.676 47.2893 125.104 46.8213 124.705 46.232C124.306 45.6253 124.107 44.932 124.107 44.152C124.107 43.4413 124.272 42.8 124.601 42.228C124.948 41.6387 125.502 41.1707 126.265 40.824C127.045 40.46 128.085 40.278 129.385 40.278H134.091V41.656H129.437C128.12 41.656 127.201 41.89 126.681 42.358C126.178 42.826 125.927 43.4067 125.927 44.1C125.927 44.88 126.23 45.504 126.837 45.972C127.444 46.44 128.293 46.674 129.385 46.674C130.425 46.674 131.318 46.44 132.063 45.972C132.826 45.4867 133.38 44.7933 133.727 43.892L134.143 45.166C133.796 46.0673 133.19 46.7867 132.323 47.324C131.474 47.8613 130.399 48.13 129.099 48.13ZM149.847 47.116V35.962H143.269L143.113 39.004C143.079 39.9227 143.018 40.824 142.931 41.708C142.862 42.592 142.732 43.4067 142.541 44.152C142.368 44.88 142.117 45.478 141.787 45.946C141.458 46.3967 141.033 46.6567 140.513 46.726L138.667 46.388C139.205 46.4053 139.647 46.2147 139.993 45.816C140.34 45.4 140.609 44.8367 140.799 44.126C140.99 43.4153 141.129 42.6093 141.215 41.708C141.302 40.7893 141.371 39.8533 141.423 38.9L141.605 34.35H151.693V47.116H149.847ZM138.095 51.302V46.388H153.825V51.302H152.083V48H139.837V51.302H138.095ZM165.899 48V44.984L165.821 44.49V39.446C165.821 38.2847 165.492 37.392 164.833 36.768C164.192 36.144 163.23 35.832 161.947 35.832C161.063 35.832 160.222 35.9793 159.425 36.274C158.628 36.5687 157.952 36.9587 157.397 37.444L156.565 36.066C157.258 35.4767 158.09 35.026 159.061 34.714C160.032 34.3847 161.054 34.22 162.129 34.22C163.897 34.22 165.258 34.662 166.211 35.546C167.182 36.4127 167.667 37.7387 167.667 39.524V48H165.899ZM161.193 48.13C160.17 48.13 159.278 47.9653 158.515 47.636C157.77 47.2893 157.198 46.8213 156.799 46.232C156.4 45.6253 156.201 44.932 156.201 44.152C156.201 43.4413 156.366 42.8 156.695 42.228C157.042 41.6387 157.596 41.1707 158.359 40.824C159.139 40.46 160.179 40.278 161.479 40.278H166.185V41.656H161.531C160.214 41.656 159.295 41.89 158.775 42.358C158.272 42.826 158.021 43.4067 158.021 44.1C158.021 44.88 158.324 45.504 158.931 45.972C159.538 46.44 160.387 46.674 161.479 46.674C162.519 46.674 163.412 46.44 164.157 45.972C164.92 45.4867 165.474 44.7933 165.821 43.892L166.237 45.166C165.89 46.0673 165.284 46.7867 164.417 47.324C163.568 47.8613 162.493 48.13 161.193 48.13ZM188.746 47.116V35.962H182.168L182.012 39.004C181.977 39.9227 181.916 40.824 181.83 41.708C181.76 42.592 181.63 43.4067 181.44 44.152C181.266 44.88 181.015 45.478 180.686 45.946C180.356 46.3967 179.932 46.6567 179.412 46.726L177.566 46.388C178.103 46.4053 178.545 46.2147 178.892 45.816C179.238 45.4 179.507 44.8367 179.698 44.126C179.888 43.4153 180.027 42.6093 180.114 41.708C180.2 40.7893 180.27 39.8533 180.322 38.9L180.504 34.35H190.592V47.116H188.746ZM176.994 51.302V46.388H192.724V51.302H190.982V48H178.736V51.302H176.994ZM201.937 48.13C200.62 48.13 199.433 47.8353 198.375 47.246C197.335 46.6393 196.512 45.816 195.905 44.776C195.299 43.7187 194.995 42.514 194.995 41.162C194.995 39.7927 195.299 38.588 195.905 37.548C196.512 36.508 197.335 35.6933 198.375 35.104C199.415 34.5147 200.603 34.22 201.937 34.22C203.289 34.22 204.485 34.5147 205.525 35.104C206.583 35.6933 207.406 36.508 207.995 37.548C208.602 38.588 208.905 39.7927 208.905 41.162C208.905 42.514 208.602 43.7187 207.995 44.776C207.406 45.816 206.583 46.6393 205.525 47.246C204.468 47.8353 203.272 48.13 201.937 48.13ZM201.937 46.492C202.925 46.492 203.801 46.2753 204.563 45.842C205.326 45.3913 205.924 44.7673 206.357 43.97C206.808 43.1553 207.033 42.2193 207.033 41.162C207.033 40.0873 206.808 39.1513 206.357 38.354C205.924 37.5567 205.326 36.9413 204.563 36.508C203.801 36.0573 202.934 35.832 201.963 35.832C200.993 35.832 200.126 36.0573 199.363 36.508C198.601 36.9413 197.994 37.5567 197.543 38.354C197.093 39.1513 196.867 40.0873 196.867 41.162C196.867 42.2193 197.093 43.1553 197.543 43.97C197.994 44.7673 198.601 45.3913 199.363 45.842C200.126 46.2753 200.984 46.492 201.937 46.492ZM212.851 48V34.35H214.723L220.911 44.828H220.131L226.423 34.35H228.139V48H226.449V36.456L226.787 36.612L220.911 46.336H220.079L214.151 36.508L214.541 36.43V48H212.851ZM241.868 48V44.984L241.79 44.49V39.446C241.79 38.2847 241.46 37.392 240.802 36.768C240.16 36.144 239.198 35.832 237.916 35.832C237.032 35.832 236.191 35.9793 235.394 36.274C234.596 36.5687 233.92 36.9587 233.366 37.444L232.534 36.066C233.227 35.4767 234.059 35.026 235.03 34.714C236 34.3847 237.023 34.22 238.098 34.22C239.866 34.22 241.226 34.662 242.18 35.546C243.15 36.4127 243.636 37.7387 243.636 39.524V48H241.868ZM237.162 48.13C236.139 48.13 235.246 47.9653 234.484 47.636C233.738 47.2893 233.166 46.8213 232.768 46.232C232.369 45.6253 232.17 44.932 232.17 44.152C232.17 43.4413 232.334 42.8 232.664 42.228C233.01 41.6387 233.565 41.1707 234.328 40.824C235.108 40.46 236.148 40.278 237.448 40.278H242.154V41.656H237.5C236.182 41.656 235.264 41.89 234.744 42.358C234.241 42.826 233.99 43.4067 233.99 44.1C233.99 44.88 234.293 45.504 234.9 45.972C235.506 46.44 236.356 46.674 237.448 46.674C238.488 46.674 239.38 46.44 240.126 45.972C240.888 45.4867 241.443 44.7933 241.79 43.892L242.206 45.166C241.859 46.0673 241.252 46.7867 240.386 47.324C239.536 47.8613 238.462 48.13 237.162 48.13ZM255.355 48V34.35H257.201V45.192L266.327 34.35H267.965V48H266.119V37.132L257.019 48H255.355ZM285.676 48.13C284.358 48.13 283.171 47.8353 282.114 47.246C281.074 46.6393 280.25 45.816 279.644 44.776C279.037 43.7187 278.734 42.514 278.734 41.162C278.734 39.7927 279.037 38.588 279.644 37.548C280.25 36.508 281.074 35.6933 282.114 35.104C283.154 34.5147 284.341 34.22 285.676 34.22C287.028 34.22 288.224 34.5147 289.264 35.104C290.321 35.6933 291.144 36.508 291.734 37.548C292.34 38.588 292.644 39.7927 292.644 41.162C292.644 42.514 292.34 43.7187 291.734 44.776C291.144 45.816 290.321 46.6393 289.264 47.246C288.206 47.8353 287.01 48.13 285.676 48.13ZM285.676 46.492C286.664 46.492 287.539 46.2753 288.302 45.842C289.064 45.3913 289.662 44.7673 290.096 43.97C290.546 43.1553 290.772 42.2193 290.772 41.162C290.772 40.0873 290.546 39.1513 290.096 38.354C289.662 37.5567 289.064 36.9413 288.302 36.508C287.539 36.0573 286.672 35.832 285.702 35.832C284.731 35.832 283.864 36.0573 283.102 36.508C282.339 36.9413 281.732 37.5567 281.282 38.354C280.831 39.1513 280.606 40.0873 280.606 41.162C280.606 42.2193 280.831 43.1553 281.282 43.97C281.732 44.7673 282.339 45.3913 283.102 45.842C283.864 46.2753 284.722 46.492 285.676 46.492ZM296.589 48V34.35H306.261V35.962H297.967L298.435 35.494V48H296.589ZM313.91 48.13C312.593 48.13 311.405 47.8353 310.348 47.246C309.308 46.6393 308.485 45.816 307.878 44.776C307.271 43.7187 306.968 42.514 306.968 41.162C306.968 39.7927 307.271 38.588 307.878 37.548C308.485 36.508 309.308 35.6933 310.348 35.104C311.388 34.5147 312.575 34.22 313.91 34.22C315.262 34.22 316.458 34.5147 317.498 35.104C318.555 35.6933 319.379 36.508 319.968 37.548C320.575 38.588 320.878 39.7927 320.878 41.162C320.878 42.514 320.575 43.7187 319.968 44.776C319.379 45.816 318.555 46.6393 317.498 47.246C316.441 47.8353 315.245 48.13 313.91 48.13ZM313.91 46.492C314.898 46.492 315.773 46.2753 316.536 45.842C317.299 45.3913 317.897 44.7673 318.33 43.97C318.781 43.1553 319.006 42.2193 319.006 41.162C319.006 40.0873 318.781 39.1513 318.33 38.354C317.897 37.5567 317.299 36.9413 316.536 36.508C315.773 36.0573 314.907 35.832 313.936 35.832C312.965 35.832 312.099 36.0573 311.336 36.508C310.573 36.9413 309.967 37.5567 309.516 38.354C309.065 39.1513 308.84 40.0873 308.84 41.162C308.84 42.2193 309.065 43.1553 309.516 43.97C309.967 44.7673 310.573 45.3913 311.336 45.842C312.099 46.2753 312.957 46.492 313.91 46.492ZM331.869 48.13C330.691 48.13 329.625 47.8613 328.671 47.324C327.718 46.7693 326.955 45.9807 326.383 44.958C325.829 43.918 325.551 42.6527 325.551 41.162C325.551 39.6713 325.829 38.4147 326.383 37.392C326.938 36.352 327.692 35.5633 328.645 35.026C329.599 34.4887 330.673 34.22 331.869 34.22C333.169 34.22 334.331 34.5147 335.353 35.104C336.393 35.676 337.208 36.4907 337.797 37.548C338.387 38.588 338.681 39.7927 338.681 41.162C338.681 42.5487 338.387 43.762 337.797 44.802C337.208 45.842 336.393 46.6567 335.353 47.246C334.331 47.8353 333.169 48.13 331.869 48.13ZM324.823 53.044V34.35H326.591V38.458L326.409 41.188L326.669 43.944V53.044H324.823ZM331.739 46.492C332.71 46.492 333.577 46.2753 334.339 45.842C335.102 45.3913 335.709 44.7673 336.159 43.97C336.61 43.1553 336.835 42.2193 336.835 41.162C336.835 40.1047 336.61 39.1773 336.159 38.38C335.709 37.5827 335.102 36.9587 334.339 36.508C333.577 36.0573 332.71 35.832 331.739 35.832C330.769 35.832 329.893 36.0573 329.113 36.508C328.351 36.9587 327.744 37.5827 327.293 38.38C326.86 39.1773 326.643 40.1047 326.643 41.162C326.643 42.2193 326.86 43.1553 327.293 43.97C327.744 44.7673 328.351 45.3913 329.113 45.842C329.893 46.2753 330.769 46.492 331.739 46.492ZM348.263 48.13C346.946 48.13 345.759 47.8353 344.701 47.246C343.661 46.6393 342.838 45.816 342.231 44.776C341.625 43.7187 341.321 42.514 341.321 41.162C341.321 39.7927 341.625 38.588 342.231 37.548C342.838 36.508 343.661 35.6933 344.701 35.104C345.741 34.5147 346.929 34.22 348.263 34.22C349.615 34.22 350.811 34.5147 351.851 35.104C352.909 35.6933 353.732 36.508 354.321 37.548C354.928 38.588 355.231 39.7927 355.231 41.162C355.231 42.514 354.928 43.7187 354.321 44.776C353.732 45.816 352.909 46.6393 351.851 47.246C350.794 47.8353 349.598 48.13 348.263 48.13ZM348.263 46.492C349.251 46.492 350.127 46.2753 350.889 45.842C351.652 45.3913 352.25 44.7673 352.683 43.97C353.134 43.1553 353.359 42.2193 353.359 41.162C353.359 40.0873 353.134 39.1513 352.683 38.354C352.25 37.5567 351.652 36.9413 350.889 36.508C350.127 36.0573 349.26 35.832 348.289 35.832C347.319 35.832 346.452 36.0573 345.689 36.508C344.927 36.9413 344.32 37.5567 343.869 38.354C343.419 39.1513 343.193 40.0873 343.193 41.162C343.193 42.2193 343.419 43.1553 343.869 43.97C344.32 44.7673 344.927 45.3913 345.689 45.842C346.452 46.2753 347.31 46.492 348.263 46.492ZM368.461 47.116V35.962H361.883L361.727 39.004C361.692 39.9227 361.631 40.824 361.545 41.708C361.475 42.592 361.345 43.4067 361.155 44.152C360.981 44.88 360.73 45.478 360.401 45.946C360.071 46.3967 359.647 46.6567 359.127 46.726L357.281 46.388C357.818 46.4053 358.26 46.2147 358.607 45.816C358.953 45.4 359.222 44.8367 359.413 44.126C359.603 43.4153 359.742 42.6093 359.829 41.708C359.915 40.7893 359.985 39.8533 360.037 38.9L360.219 34.35H370.307V47.116H368.461ZM356.709 51.302V46.388H372.439V51.302H370.697V48H358.451V51.302H356.709ZM384.512 48V44.984L384.434 44.49V39.446C384.434 38.2847 384.105 37.392 383.446 36.768C382.805 36.144 381.843 35.832 380.56 35.832C379.676 35.832 378.835 35.9793 378.038 36.274C377.241 36.5687 376.565 36.9587 376.01 37.444L375.178 36.066C375.871 35.4767 376.703 35.026 377.674 34.714C378.645 34.3847 379.667 34.22 380.742 34.22C382.51 34.22 383.871 34.662 384.824 35.546C385.795 36.4127 386.28 37.7387 386.28 39.524V48H384.512ZM379.806 48.13C378.783 48.13 377.891 47.9653 377.128 47.636C376.383 47.2893 375.811 46.8213 375.412 46.232C375.013 45.6253 374.814 44.932 374.814 44.152C374.814 43.4413 374.979 42.8 375.308 42.228C375.655 41.6387 376.209 41.1707 376.972 40.824C377.752 40.46 378.792 40.278 380.092 40.278H384.798V41.656H380.144C378.827 41.656 377.908 41.89 377.388 42.358C376.885 42.826 376.634 43.4067 376.634 44.1C376.634 44.88 376.937 45.504 377.544 45.972C378.151 46.44 379 46.674 380.092 46.674C381.132 46.674 382.025 46.44 382.77 45.972C383.533 45.4867 384.087 44.7933 384.434 43.892L384.85 45.166C384.503 46.0673 383.897 46.7867 383.03 47.324C382.181 47.8613 381.106 48.13 379.806 48.13Z" fill="#000200"/>
</svg>
